<svg id="Line" height="512" viewBox="0 0 64 64" width="512" xmlns="http://www.w3.org/2000/svg"><path d="m60 40.5a2.99507 2.99507 0 0 0 -2.81573 2h-1.38154a2.36307 2.36307 0 0 1 -1.9707-1.05469 4.35865 4.35865 0 0 0 -3.63476-1.94531h-1.39454a4.35865 4.35865 0 0 0 -3.63473 1.94531 2.36307 2.36307 0 0 1 -1.97073 1.05469h-4.19727a4 4 0 0 0 0 8h8a1 1 0 0 1 0 2h-8a6.00814 6.00814 0 0 1 -5.9682-5.38226l-7.2408-7.24074a4.29292 4.29292 0 0 0 -6.2544 5.876l10.32473 11.70159a9.00312 9.00312 0 0 0 6.74902 3.04541h20.574a2.99253 2.99253 0 0 0 5.81565-1v-16a3.00328 3.00328 0 0 0 -3-3zm1 19a1 1 0 0 1 -2 0v-16a1 1 0 0 1 2 0z" fill="#c4a2fc"/><path d="m45.65918 18.74805a.99915.99915 0 0 0 -1.31836 0c-.75146.6582-7.34082 6.55371-7.34082 10.75195a8 8 0 0 0 16 0c0-4.19824-6.58936-10.09375-7.34082-10.75195z" fill="#c4a2fc"/><g fill="#151a6a"><path d="m26 15.5h-3v-3a1 1 0 0 0 -1-1h-3v-3.95947a17.431 17.431 0 0 1 6.106 1.37847 19.43561 19.43561 0 0 0 7.70211 1.581h2.19189a1 1 0 0 0 1-1v-4a1 1 0 0 0 -1-1h-.728a22.48582 22.48582 0 0 1 -7.9209-1.43652 24.47916 24.47916 0 0 0 -8.6231-1.56348h-9.728a1 1 0 0 0 -1 1v4a1 1 0 0 0 1 1h3v4h-3a1 1 0 0 0 -1 1v3h-3a3.00328 3.00328 0 0 0 -3 3v30a3.00328 3.00328 0 0 0 3 3h22a3.00328 3.00328 0 0 0 3-3v-30a3.00328 3.00328 0 0 0 -3-3zm-23 14.73834 24-7.38464v15.908l-24 7.3846zm6-26.73834h8.728a22.48582 22.48582 0 0 1 7.9209 1.43652 24.484 24.484 0 0 0 8.3511 1.56202v2.00146h-1.19189a17.45541 17.45541 0 0 1 -6.91411-1.41895 19.43561 19.43561 0 0 0 -7.70211-1.58105h-9.19189zm4 4h4v4h-4zm-4 6h12v2h-12zm-5 4h22a1.0013 1.0013 0 0 1 1 1v2.26166l-24 7.38464v-9.6463a1.0013 1.0013 0 0 1 1-1zm22 32h-22a1.0013 1.0013 0 0 1 -1-1v-.26166l24-7.38464v7.6463a1.0013 1.0013 0 0 1 -1 1z"/><path d="m40.6001 13.7002a1.00047 1.00047 0 0 0 -1.2002 0c-.34277.2568-8.3999 6.37353-8.3999 12.7998a9 9 0 0 0 18 0c0-6.42627-8.05713-12.543-8.3999-12.7998zm-.6001 19.7998a7.00787 7.00787 0 0 1 -7-7c0-4.51221 5.20361-9.22607 7-10.71826 1.79639 1.49219 7 6.20605 7 10.71826a7.00787 7.00787 0 0 1 -7 7z"/><path d="m44 25.5a1 1 0 0 0 -1 1 3.00328 3.00328 0 0 1 -3 3 1 1 0 0 0 0 2 5.00588 5.00588 0 0 0 5-5 1 1 0 0 0 -1-1z"/><path d="m20 33.5h-4v-4a1 1 0 0 0 -2 0v4h-4a1 1 0 0 0 0 2h4v4a1 1 0 0 0 2 0v-4h4a1 1 0 0 0 0-2z"/></g></svg>