<svg id="Capa_1" enable-background="new 0 0 512 512" height="512" viewBox="0 0 512 512" width="512" xmlns="http://www.w3.org/2000/svg"><g><g fill="#76e4d7"><path d="m75.37 370.523v-28.489l32.278-15.991-13.317-26.882-48.961 24.256v47.104l-8.383-6.314-18.049 23.964 41.432 31.205 41.431-31.203-18.048-23.964z"/><path d="m47.789 260.804 13.46 26.811 46.355-23.273-9.567-50.977-29.485 5.533 1.936 10.316-25.528-12.647v-36.023h-30v54.64l42.208 20.911z"/></g><path d="m381.67 338.87-86.46 46.53h-46.06l-5.97-65.4-64.41 11.06c-11.52 1.97-22.48-5.68-24.59-17.17l-3.19-17.39 38.31-27-.09-1.94-42.47-17.62v-17.86l-21.36-21.36 42.72-71.16v-56.98l127.11-8.96 26.87-1.89 47.8 181.56c-3.78 9.29-4.69 19.64-2.17 29.7z" fill="#ffc7b8"/><path d="m381.67 338.87-86.46 46.53v-311.78l26.87-1.89 47.8 181.56c-3.78 9.29-4.69 19.64-2.17 29.7z" fill="#fab096"/><path d="m424.389 133.64v.08c0 39.09-15.87 76.08-43.3 102.89-4.92 4.81-8.69 10.51-11.21 16.68l-38.63-53.22c22.53-26.92-2.38-66.61-36.04-58.85l-20.32 4.7v-28.61c0-19.18-15.55-34.73-34.74-34.73h-72.049c-13.68-13.68-21.36-32.22-21.36-51.56v-31.02h144.01c1.49 0 2.98.02 4.46.08 71.74 2.34 129.179 61.24 129.179 133.56z" fill="#42789d"/><path d="m424.389 133.64v.08c0 39.09-15.87 76.08-43.3 102.89-4.92 4.81-8.69 10.51-11.21 16.68l-38.63-53.22c22.53-26.92-2.38-66.61-36.04-58.85v-141.14c71.741 2.34 129.18 61.24 129.18 133.56z" fill="#335a8c"/><path d="m497.04 512h-288.04l40.15-126.6 46.06-16.17 86.46-30.36c70.839 28.37 115.409 98.61 115.37 173.13z" fill="#ff69ab"/><path d="m497.04 512h-201.83v-142.77l86.46-30.36c70.839 28.37 115.409 98.61 115.37 173.13z" fill="#de5b95"/></g></svg>