<svg id="Layer_1" enable-background="new 0 0 512 512" height="512" viewBox="0 0 512 512" width="512" xmlns="http://www.w3.org/2000/svg"><g><path d="m81 392v-272c0-8.965 1.183-17.653 3.398-25.919-10.78-10.425-21.471-21.008-31.344-32.296-2.495-2.853-4.957-5.736-7.44-8.599-15.92 17.709-25.614 41.126-25.614 66.814v272c0 55.229 44.771 100 100 100h61c-55.229 0-100-44.771-100-100z" fill="#cee1f2"/><path d="m110 20c0-11.046 8.954-20 20-20h37c11.046 0 20 8.954 20 20s-8.954 20-20 20h-37c-11.046 0-20-8.954-20-20zm282-20h-6c-11.046 0-20 8.954-20 20s8.954 20 20 20h6c44.112 0 80 35.888 80 80v262c0 11.046 8.954 20 20 20s20-8.954 20-20v-262c0-66.168-53.832-120-120-120zm-131.357 232.358c-7.811-7.811-20.475-7.811-28.285 0s-7.81 20.474 0 28.284l200.269 200.269c-12.209 7.212-26.173 11.089-40.627 11.089h-272c-44.112 0-80-35.888-80-80v-272c0-14.529 3.856-28.463 11.069-40.647l66.789 66.789c3.905 3.905 9.024 5.858 14.142 5.858s10.237-1.953 14.143-5.858c7.81-7.811 7.81-20.474 0-28.284l-112-112c-7.811-7.811-20.475-7.811-28.285 0s-7.81 20.474 0 28.284l16.317 16.318c-14.403 20.172-22.175 44.258-22.175 69.54v272c0 66.168 53.832 120 120 120h272c25.146 0 49.322-7.795 69.527-22.188l16.331 16.331c3.905 3.904 9.024 5.857 14.142 5.857s10.237-1.953 14.143-5.858c7.81-7.811 7.81-20.474 0-28.284zm-49.643-167.358c0-35.841 29.159-65 65-65s65 29.159 65 65-29.159 65-65 65-65-29.159-65-65zm40 0c0 13.785 11.215 25 25 25s25-11.215 25-25-11.215-25-25-25-25 11.215-25 25z" fill="#0023c4"/><path d="m308.001 442c-5.184 0-10.362-2.002-14.278-5.995l-81.9-83.491-16.41 39.223c-10.997 26.282-36.509 43.263-64.996 43.263h-25.417c-11.046 0-20-8.954-20-20s8.954-20 20-20h25.417c12.313 0 23.342-7.34 28.095-18.701l28.038-67.018c2.586-6.182 8.097-10.658 14.678-11.922 6.572-1.266 13.356.851 18.05 5.636l103 105c7.735 7.885 7.613 20.548-.271 28.283-3.894 3.818-8.952 5.722-14.006 5.722zm-150.395-158.665 26.286-66.677c5.906-14.979 20.126-24.658 36.228-24.658h37.771c25.263 0 49.934 10.309 67.687 28.284l46.193 46.771c7.76 7.858 20.426 7.937 28.283.175 7.859-7.762 7.938-20.425.176-28.284l-46.193-46.771c-25.218-25.531-60.262-40.175-96.146-40.175h-37.771c-32.643 0-61.47 19.622-73.44 49.988l-26.286 66.676c-4.051 10.276.995 21.891 11.271 25.942 2.408.949 4.889 1.399 7.329 1.399 7.974 0 15.511-4.802 18.612-12.67z" fill="#ff5cf7"/></g></svg>