<svg height="512" viewBox="0 0 512 512" width="512" xmlns="http://www.w3.org/2000/svg"><g id="filled_outline" data-name="filled outline"><path d="m328 248v-136h-64v112l.149 49.135 64.089 1.394z" fill="#8feaff"/><path d="m296 256a8 8 0 0 1 -8-8v-32a8 8 0 0 1 16 0v32a8 8 0 0 1 -8 8z" fill="#0bafea"/><path d="m312 400a24 24 0 1 0 41.844-16.047 40 40 0 0 0 12.915-77.129 48 48 0 0 0 -79.082-46.307 32.354 32.354 0 0 0 .323-4.517 31.993 31.993 0 0 0 -56-21.155 32 32 0 1 0 0 42.31 31.916 31.916 0 0 0 24 10.845v56z" fill="#eaeae8"/><path d="m301.828 384.22-129.598-119.55-93.493-75.288-40.337 116.706 44.11 34.092a66.528 66.528 0 0 0 48.484 37.169l.675.121 53.543 42.83a16.867 16.867 0 1 0 21.073-26.342l42.927 34.342a16.858 16.858 0 0 0 22.764-24.765l8.779 7.022a16.867 16.867 0 0 0 22.463-1.244 16.867 16.867 0 0 0 -1.39-25.093z" fill="#f6bb92"/><path d="m325.282 364.367-84.055-96.986a36 36 0 0 0 -23.227-12.202l-58-6.445-80-64-24 72 80 56 12.154 6.753a51.773 51.773 0 0 0 43.639 24.244l.555.308 42.4 37.094a18.962 18.962 0 0 0 25.252-1.4 18.948 18.948 0 0 0 1.741-24.78l37.831 33.353a17.577 17.577 0 0 0 24.856 0 17.576 17.576 0 0 0 .854-23.939z" fill="#fdc9a6"/><path d="m316.04 392.99a17.6 17.6 0 0 1 -16.47-4.68l-37.83-33.36c.17.22.33.45.48.67l-30.54-27.02-13.56-34.48a4.373 4.373 0 1 1 8.2-3.04l11.42 32.57z" fill="#fdc9a6"/><path d="m248 80v-34a22 22 0 0 1 22-22h66l152 80v64l-152-88z" fill="#0bafea"/><path d="m296 152a8 8 0 0 1 -8-8v-32a8 8 0 0 1 16 0v32a8 8 0 0 1 -8 8z" fill="#0bafea"/><path d="m296 192a8 8 0 0 1 -8-8v-8a8 8 0 0 1 16 0v8a8 8 0 0 1 -8 8z" fill="#0bafea"/><g fill="#eaeae8"><circle cx="192" cy="176" r="16"/><circle cx="240" cy="472" r="16"/><circle cx="408" cy="408" r="16"/><circle cx="132" cy="444" r="20"/><circle cx="396" cy="244" r="20"/></g><path d="m206.285 393.962-53.5-42.619a2.469 2.469 0 0 1 -.208-3.676 2.469 2.469 0 0 1 3.286-.184l49.334 39.37a5.3 5.3 0 0 1 1.09 7.109z" fill="#eeb58e"/><path d="m256 80h80v32h-80z" fill="#0bafea"/><path d="m256 80h80v16h-80z" fill="#0a9acd"/><path d="m491.726 96.92-152-80a8.009 8.009 0 0 0 -3.726-.92h-66a30.034 30.034 0 0 0 -30 30v34a8 8 0 0 0 8 8v24a8 8 0 0 0 8 8v96a40 40 0 0 0 -24 8.011 39.983 39.983 0 0 0 -61.415 17.851l-7.4-.822-78.185-62.553a8 8 0 0 0 -12.587 3.718l-41.544 121.172a8 8 0 0 0 2.634 9.041l42.635 32.948a74.942 74.942 0 0 0 49.789 39.1l54.338 42.122a24.858 24.858 0 0 0 39.16-11.872l24.789 19.832a24.852 24.852 0 0 0 39.661-13.436 24.724 24.724 0 0 0 24.25-5.428 32 32 0 0 0 58.219-25.858 48.023 48.023 0 0 0 9.305-87.607 55.454 55.454 0 0 0 .351-6.219 56.093 56.093 0 0 0 -40-53.659v-122.341a8 8 0 0 0 8-8v-18.124l139.992 81.047a8 8 0 0 0 12.008-6.923v-64a8 8 0 0 0 -4.274-7.08zm-163.726-8.92v16h-64v-16zm-244.039 110.148 71.039 56.833a8.009 8.009 0 0 0 4.115 1.7l58 6.444a27.925 27.925 0 0 1 18.068 9.49l84.054 96.987a9.576 9.576 0 0 1 -14.007 13.043c-.117-.116-.236-.229-.359-.338l-66.148-58.307-15.3-38.238a8 8 0 0 0 -14.856 5.943l16 40c.015.036.032.06.047.095a7.96 7.96 0 0 0 2.078 2.924l29.333 25.967c2.97 4.214 2.282 10.417-1.687 14.386a10.948 10.948 0 0 1 -14.478.9l-42.6-37.267a8.006 8.006 0 0 0 -5.26-1.976 44.333 44.333 0 0 1 -39.43-24.166 7.944 7.944 0 0 0 -2.742-3.126l-84.3-55.985zm182.057 223.252a8.858 8.858 0 0 1 -11.809.654l-46.566-37.254-50.593-40.47a8 8 0 1 0 -10 12.494l54.232 43.385a8.866 8.866 0 0 1 .731 13.194 8.858 8.858 0 0 1 -11.809.654l-.1-.076-55.907-43.339a7.947 7.947 0 0 0 -4.01-1.62 58.818 58.818 0 0 1 -40.447-32.248 8 8 0 0 0 -2.34-2.924l-39.5-30.531 12.313-34.186 79.052 52.5a60.524 60.524 0 0 0 49.635 31.02l40.578 35.5c.089.077.179.153.27.226a26.893 26.893 0 0 0 16.84 5.917c.542 0 1.083-.022 1.624-.054l17.073 13.966a8.866 8.866 0 0 1 .731 13.194zm19.751-17.075-8.443-6.791a24.4 24.4 0 0 0 -1.976-1.766l-10.513-8.6c.277-.254.552-.511.82-.779a27.715 27.715 0 0 0 6.828-11.346l21.621 19.108a25.484 25.484 0 0 0 5.975 4.353 8.858 8.858 0 0 1 -14.312 5.822zm74.231-108.325a40.237 40.237 0 0 1 -1.036 9.025 8 8 0 0 0 4.841 9.233 32 32 0 0 1 -10.324 61.7 8 8 0 0 0 -5.584 13.343 16 16 0 1 1 -27.889 10.853 25.4 25.4 0 0 0 10.077-6.195 25.666 25.666 0 0 0 1.242-34.835l-84.055-96.986a43.871 43.871 0 0 0 -28.391-14.914l-31.494-3.5a23.978 23.978 0 0 1 38.613-3.586 8 8 0 0 0 12 0 23.993 23.993 0 0 1 42 15.862 24.448 24.448 0 0 1 -.245 3.4 8 8 0 0 0 13.311 7.031 40 40 0 0 1 66.934 29.569zm-40-56a56.061 56.061 0 0 0 -16 2.331v-26.331a8 8 0 0 0 -16 0v16.04a40.224 40.224 0 0 0 -16-12.693v-99.347h16v24a8 8 0 0 0 16 0v-24h16zm160-85.875-139.992-81.048a8 8 0 0 0 -4.008-1.077h-80v-26a14.015 14.015 0 0 1 14-14h64.023l145.977 76.83z"/><path d="m296 168a8 8 0 0 0 -8 8v8a8 8 0 0 0 16 0v-8a8 8 0 0 0 -8-8z"/><path d="m192 200a24 24 0 1 0 -24-24 24.027 24.027 0 0 0 24 24zm0-32a8 8 0 1 1 -8 8 8.009 8.009 0 0 1 8-8z"/><path d="m240 448a24 24 0 1 0 24 24 24.027 24.027 0 0 0 -24-24zm0 32a8 8 0 1 1 8-8 8.009 8.009 0 0 1 -8 8z"/><path d="m408 384a24 24 0 1 0 24 24 24.027 24.027 0 0 0 -24-24zm0 32a8 8 0 1 1 8-8 8.009 8.009 0 0 1 -8 8z"/><path d="m132 416a28 28 0 1 0 28 28 28.032 28.032 0 0 0 -28-28zm0 40a12 12 0 1 1 12-12 12.013 12.013 0 0 1 -12 12z"/><path d="m396 216a28 28 0 1 0 28 28 28.032 28.032 0 0 0 -28-28zm0 40a12 12 0 1 1 12-12 12.013 12.013 0 0 1 -12 12z"/></g></svg>