<svg id="Capa_1" enable-background="new 0 0 512 512" height="512" viewBox="0 0 512 512" width="512" xmlns="http://www.w3.org/2000/svg" xmlns:xlink="http://www.w3.org/1999/xlink"><linearGradient id="SVGID_1_" gradientUnits="userSpaceOnUse" x1="256" x2="256" y1="512" y2="0"><stop offset="0" stop-color="#addcff"/><stop offset=".5028" stop-color="#eaf6ff"/><stop offset="1" stop-color="#eaf6ff"/></linearGradient><linearGradient id="SVGID_2_" gradientTransform="matrix(.707 -.707 .707 .707 -2841.515 2222.055)" gradientUnits="userSpaceOnUse" x1="3759.05" x2="3401.92" y1="791.417" y2="791.417"><stop offset="0" stop-color="#5558ff"/><stop offset="1" stop-color="#00c0ff"/></linearGradient><g><g><circle cx="256" cy="256" fill="url(#SVGID_1_)" r="256"/></g><g><g><path d="m382.264 129.736c-32.981-32.981-86.638-32.981-119.619 0l-17.113 17.113c-10.957 2.825-16.515 3.741-29.438 3.687-14.34-.057-27.755 5.138-38.778 13.491l125.202 125.202c3.673 3.673 3.673 9.618 0 13.291s-9.618 3.673-13.291 0l-125.201-125.203c-8.352 11.023-13.548 24.438-13.491 38.778.056 13.436-.977 18.93-3.687 29.438l-17.113 17.113c-32.981 32.981-32.981 86.638 0 119.619s86.638 32.981 119.619 0l16.94-16.94c22.384-5.692 44.385-17.803 62.806-36.224s30.532-40.422 36.224-62.806l16.94-16.94c32.981-32.981 32.981-86.638 0-119.619zm-239.237 239.237c-25.647-25.647-25.647-67.389 0-93.037l.032-.032c.23 25.601 9.237 49.175 26.549 66.487 17.65 17.65 41.29 26.424 66.289 26.717-25.661 25.493-67.274 25.462-92.87-.135zm93.037-53.164c-10.994 10.994-28.879 10.994-39.873 0s-10.994-28.879 0-39.873 28.879-10.994 39.873 0c10.993 10.994 10.993 28.88 0 39.873zm133.044-79.911c-.293-24.999-9.067-48.64-26.717-66.289-17.312-17.312-40.886-26.32-66.487-26.55l.032-.032c25.647-25.647 67.389-25.647 93.037 0 25.597 25.596 25.628 67.209.135 92.871zm-159.626 53.33c-3.667 3.667-3.667 9.624 0 13.291s9.624 3.667 13.291 0 3.667-9.624 0-13.291-9.625-3.667-13.291 0z" fill="url(#SVGID_2_)"/></g></g></g></svg>